<svg xmlns="http://www.w3.org/2000/svg" xmlns:xlink="http://www.w3.org/1999/xlink" version="1.1" x="0px" y="0px" viewBox="0 0 100 125" enable-background="new 0 0 100 100" xml:space="preserve"><path d="M73.353,8.459c-11.415,0-20.701,9.286-20.701,20.701c0,9.257,6.109,17.115,14.507,19.754v41.098c0,1.104,0.896,2,2,2h8.29  c1.104,0,2-0.896,2-2V48.945c8.449-2.608,14.605-10.492,14.605-19.785C94.053,17.745,84.767,8.459,73.353,8.459z M75.448,88.012  h-4.29V49.745c1.409,0.149,2.879,0.153,4.29,0.01V88.012z M56.651,29.16c0-9.209,7.492-16.701,16.701-16.701  s16.701,7.492,16.701,16.701c0,4.565-1.488,9.104-4.823,11.722c-5.485,4.305-13.863,2.812-19.013-2.339  c-4.783-4.783-4.783-12.565,0-17.349c3.749-3.748,9.909-3.808,13.596,0c3.645,3.764,2.416,8.701,0.041,10.743  c-3.617,3.109-9.625,1.743-9.625-3.271c0-4.028,3.896-5.135,5.958-3.521c2.145,1.679,0.982,5.378-2.313,4.313  c-0.708-0.229-1.667-1.792-0.04-3.584c0.371-0.409-0.772-0.582-1.538,0.235c-0.589,0.629-0.896,1.404-0.901,2.266  c-0.017,3.116,3.458,4.042,5.792,2.625c1.433-0.87,1.894-2.534,1.894-3.73s-0.466-2.321-1.312-3.166  c-2.084-2.084-5.477-2.085-7.562,0c-1.215,1.215-1.838,2.959-1.816,4.678c0.078,6.219,7.907,8.933,13.141,4.25  c2.573-2.302,4.344-8.115-0.304-13.251c-4.297-4.749-11.896-4.527-16.424,0c-5.563,5.563-5.563,14.614,0,20.177  c3.428,3.428,7.603,5.355,13.7,5.082C73.417,47.75,56.651,43.375,56.651,29.16z M7.052,41.279l5.573,2.19  c0,0,0.661,3.239,1.083,3.448l3.854,1.49l1.537,4.928c0.525,1.354,1.791,1.26,2.137,1.141c3.214-1.106,2.51-10.068,2.51-10.068  c4.107,1.484,10.402,1.855,15.749-3.491c5.64-5.64,5.244-11.737,3.619-15.709c0,0,7.604,1.7,8.737-2.437  c0.238-0.867,0.195-1.473-1.14-2.137l-3.369-1.546c0,0-1.541-3.885-1.717-4.045l-4.083-1.417L39.099,8.91  c-0.477-0.745-1.411-1.158-2.237-0.843c-3.768,1.434-1.52,10.081-1.52,10.081c-3.878-1.168-9.622-1.144-14.69,3.925  c-5.087,5.086-5.126,10.859-3.969,14.75c0,0-9.846-0.617-10.62,2.146C5.824,39.821,6.078,40.891,7.052,41.279z M21.592,39.443  c0.008-0.644-0.72-2.687-1.023-3.65c0.635,0.816,2.947,3.738,4.875,4.95C24.111,40.297,21.749,39.405,21.592,39.443z M21.428,27.545  c1.421,2.655,3.612,5.67,5.803,7.861c1.847,1.846,4.661,3.424,7.042,4.557c-1.297,0.767-2.591,1.163-3.814,1.32  c-1.941-0.911-4.001-2.034-5.537-3.57c-1.91-1.911-3.681-4.185-4.813-6.129C20.234,30.323,20.621,28.948,21.428,27.545z   M29.673,21.614c1.308,2.189,3.347,4.692,5.003,6.348c1.527,1.527,3.553,2.627,5.45,3.579c-0.108,0.934-0.374,1.928-0.859,2.956  c-2.487-1.094-5.157-2.485-6.899-4.227c-2.265-2.265-4.38-5.259-5.564-7.777C27.791,22.018,28.758,21.745,29.673,21.614z   M39.354,16.726l3.312,1.483l1.208,2.89c0,0-4.479,0.509-4.615,0.556C39.294,21.508,39.354,16.726,39.354,16.726z M37.961,23.078  c0.227,0.85,1.795,3.604,2.14,6.202c-1.467-0.771-2.927-1.646-4.012-2.732c-1.466-1.466-2.976-3.333-4.085-4.989  C34.423,21.784,37.071,22.936,37.961,23.078z M25.081,23.528c1.3,2.696,3.48,5.764,5.872,8.156c1.908,1.907,4.693,3.391,7.294,4.548  c-0.769,1.159-1.341,1.83-2.136,2.38c-2.25-1.011-5.539-2.693-7.466-4.62c-2.295-2.295-4.647-5.644-5.905-8.289  C23.313,24.938,23.938,24.156,25.081,23.528z M20.175,40.739c-0.047,0.137-0.556,4.616-0.556,4.616L17,43.953l-1.754-3.118  C15.246,40.835,20.028,40.774,20.175,40.739z M60.535,65.848c0,0,2.528-9.011,1.801-9.463c-0.727-0.451-2.66-0.391-3.323,0.151  l-6.74,5.517v-3.458c0-1.104-0.896-2-2-2H17.708c-1.104,0-2,0.896-2,2v2.796l-5.843-5.883c-0.616-0.62-2.563-0.77-3.337-0.368  c-0.776,0.401,1.295,9.884,1.295,9.884s-2.678,9.434-1.979,9.896c0.699,0.461,2.612,0.439,3.287-0.058l6.577-4.834v3.627  c0,1.104,0.896,2,2,2h32.565c1.104,0,2-0.896,2-2v-3.83l8.046,5.493c0.341,0.233,0.734,0.348,1.127,0.348  c0.441,0,1.882-0.146,2.246-0.436C64.379,74.685,60.535,65.848,60.535,65.848z M11.134,68.426c0,0,0.704-2.681,0.658-2.947  l-0.289-2.647l3.055,3.076L11.134,68.426z M48.273,60.595v4.546c0,0-2.979-2.766-3.297-2.771c-0.329,0.01-5.676,3.802-5.676,3.802  s-5.323-3.809-5.61-3.802c-0.32,0.004-5.255,3.693-5.255,3.693s-4.613-3.688-4.943-3.693c-0.351-0.021-3.784,3.24-3.784,3.24v-5.015  H48.273z M19.708,71.655v-1.78l3.738-3.736c0,0,4.613,3.688,4.943,3.693c0.317,0,5.336-3.766,5.336-3.766s5.253,3.765,5.567,3.766  c0.001,0,0.002,0,0.003,0c0.313,0,5.639-3.773,5.639-3.773l3.34,3.098v2.499H19.708z M53.766,66.001l3.243-2.654l-0.571,2.513  c-0.091,0.393,0.786,2.502,0.786,2.502L53.766,66.001z"/><text x="0" y="115" fill="#000000" font-size="5px" font-weight="bold" font-family="'Helvetica Neue', Helvetica, Arial-Unicode, Arial, Sans-serif">Created by H Alberto Gongora</text><text x="0" y="120" fill="#000000" font-size="5px" font-weight="bold" font-family="'Helvetica Neue', Helvetica, Arial-Unicode, Arial, Sans-serif">from the Noun Project</text></svg>