<svg xmlns="http://www.w3.org/2000/svg" xmlns:xlink="http://www.w3.org/1999/xlink" version="1.1" x="0px" y="0px" viewBox="0 0 100 125" enable-background="new 0 0 100 100" xml:space="preserve"><g><path d="M93.637,95H6.364C5.61,95,5,94.39,5,93.637v-17.12c0-0.754,0.61-1.364,1.364-1.364h87.273c0.753,0,1.363,0.61,1.363,1.364   v17.12C95,94.39,94.39,95,93.637,95z M7.727,92.272h84.545V77.88H7.727V92.272z"/></g><g><path d="M93.637,77.88H6.364C5.61,77.88,5,77.271,5,76.517v-6.768c0-0.754,0.61-1.364,1.364-1.364h87.273   c0.753,0,1.363,0.61,1.363,1.364v6.768C95,77.271,94.39,77.88,93.637,77.88z M7.727,75.152h84.545v-4.04H7.727V75.152z"/></g><g><path d="M93.637,71.112H6.364c-0.445,0-0.862-0.216-1.116-0.58c-0.255-0.365-0.317-0.829-0.167-1.247l6.69-18.473   c0.196-0.541,0.708-0.9,1.283-0.9h73.892c0.573,0,1.086,0.359,1.281,0.9l6.689,18.473c0.152,0.418,0.091,0.882-0.165,1.247   C94.497,70.896,94.081,71.112,93.637,71.112z M8.308,68.385h83.384L85.99,52.64H14.01L8.308,68.385z"/></g><g><path d="M22.472,57.841h-4.943c-0.753,0-1.364-0.609-1.364-1.363s0.61-1.364,1.364-1.364h4.943c0.753,0,1.364,0.61,1.364,1.364   S23.225,57.841,22.472,57.841z"/></g><g><path d="M34.473,57.841h-4.946c-0.754,0-1.364-0.609-1.364-1.363s0.61-1.364,1.364-1.364h4.946c0.754,0,1.363,0.61,1.363,1.364   S35.227,57.841,34.473,57.841z"/></g><g><path d="M46.471,57.841h-4.942c-0.754,0-1.364-0.609-1.364-1.363s0.61-1.364,1.364-1.364h4.942c0.754,0,1.364,0.61,1.364,1.364   S47.225,57.841,46.471,57.841z"/></g><g><path d="M58.472,57.841h-4.945c-0.754,0-1.363-0.609-1.363-1.363s0.609-1.364,1.363-1.364h4.945c0.754,0,1.364,0.61,1.364,1.364   S59.226,57.841,58.472,57.841z"/></g><g><path d="M70.471,57.841h-4.943c-0.754,0-1.363-0.609-1.363-1.363s0.609-1.364,1.363-1.364h4.943c0.754,0,1.363,0.61,1.363,1.364   S71.225,57.841,70.471,57.841z"/></g><g><path d="M82.472,57.841h-4.943c-0.754,0-1.363-0.609-1.363-1.363s0.609-1.364,1.363-1.364h4.943c0.754,0,1.363,0.61,1.363,1.364   S83.226,57.841,82.472,57.841z"/></g><g><path d="M22.472,65h-4.943c-0.753,0-1.364-0.61-1.364-1.363c0-0.754,0.61-1.364,1.364-1.364h4.943c0.753,0,1.364,0.61,1.364,1.364   C23.835,64.39,23.225,65,22.472,65z"/></g><g><path d="M34.473,65h-4.946c-0.754,0-1.364-0.61-1.364-1.363c0-0.754,0.61-1.364,1.364-1.364h4.946c0.754,0,1.363,0.61,1.363,1.364   C35.836,64.39,35.227,65,34.473,65z"/></g><g><path d="M46.471,65h-4.942c-0.754,0-1.364-0.61-1.364-1.363c0-0.754,0.61-1.364,1.364-1.364h4.942c0.754,0,1.364,0.61,1.364,1.364   C47.835,64.39,47.225,65,46.471,65z"/></g><g><path d="M58.472,65h-4.945c-0.754,0-1.363-0.61-1.363-1.363c0-0.754,0.609-1.364,1.363-1.364h4.945c0.754,0,1.364,0.61,1.364,1.364   C59.836,64.39,59.226,65,58.472,65z"/></g><g><path d="M70.471,65h-4.943c-0.754,0-1.363-0.61-1.363-1.363c0-0.754,0.609-1.364,1.363-1.364h4.943c0.754,0,1.363,0.61,1.363,1.364   C71.834,64.39,71.225,65,70.471,65z"/></g><g><path d="M82.472,65h-4.943c-0.754,0-1.363-0.61-1.363-1.363c0-0.754,0.609-1.364,1.363-1.364h4.943c0.754,0,1.363,0.61,1.363,1.364   C83.835,64.39,83.226,65,82.472,65z"/></g><g><path d="M45.382,44.199H23.563c-0.753,0-1.364-0.61-1.364-1.363V14.774c0-0.754,0.61-1.363,1.364-1.363h21.818   c0.754,0,1.363,0.609,1.363,1.363v28.062C46.745,43.589,46.136,44.199,45.382,44.199z M24.927,41.472h19.091V16.138H24.927V41.472z   "/></g><g><path d="M86.946,52.64H13.054c-0.401,0-0.783-0.176-1.042-0.485c-0.26-0.306-0.37-0.711-0.304-1.104l2.855-16.884   c0.112-0.657,0.679-1.137,1.345-1.137h7.654c0.754,0,1.364,0.609,1.364,1.363v7.079h19.091v-7.079c0-0.754,0.609-1.363,1.363-1.363   h38.709c0.666,0,1.233,0.479,1.345,1.137l2.855,16.884c0.066,0.394-0.045,0.799-0.304,1.104   C87.729,52.464,87.347,52.64,86.946,52.64z M14.668,49.912h70.664l-2.393-14.155H46.745v7.079c0,0.753-0.609,1.363-1.363,1.363   H23.563c-0.753,0-1.364-0.61-1.364-1.363v-7.079h-5.139L14.668,49.912z"/></g><g><path d="M84.091,27.671H55.998c-0.754,0-1.364-0.61-1.364-1.364V6.363C54.634,5.61,55.244,5,55.998,5h28.093   c0.754,0,1.363,0.61,1.363,1.363v19.943C85.454,27.061,84.845,27.671,84.091,27.671z M57.361,24.943h25.366V7.728H57.361V24.943z"/></g><g><path d="M76.106,34.997H63.982c-0.754,0-1.363-0.609-1.363-1.363v-7.327c0-0.754,0.609-1.363,1.363-1.363h12.124   c0.754,0,1.363,0.609,1.363,1.363v7.327C77.47,34.388,76.86,34.997,76.106,34.997z M65.347,32.271h9.396v-4.6h-9.396V32.271z"/></g><g><path d="M79.968,45.824H63.982c-0.754,0-1.363-0.61-1.363-1.364v-3.971c0-0.754,0.609-1.363,1.363-1.363h15.985   c0.754,0,1.364,0.609,1.364,1.363v3.971C81.332,45.214,80.722,45.824,79.968,45.824z M65.347,43.097h13.258v-1.244H65.347V43.097z"/></g><g><path d="M50,91.042c-3.289,0-5.966-2.677-5.966-5.966S46.711,79.11,50,79.11s5.966,2.677,5.966,5.966S53.289,91.042,50,91.042z    M50,81.838c-1.786,0-3.238,1.451-3.238,3.238s1.452,3.239,3.238,3.239s3.238-1.452,3.238-3.239S51.786,81.838,50,81.838z"/></g><text x="0" y="115" fill="#000000" font-size="5px" font-weight="bold" font-family="'Helvetica Neue', Helvetica, Arial-Unicode, Arial, Sans-serif">Created by Royyan Wijaya</text><text x="0" y="120" fill="#000000" font-size="5px" font-weight="bold" font-family="'Helvetica Neue', Helvetica, Arial-Unicode, Arial, Sans-serif">from the Noun Project</text></svg>