<svg xmlns="http://www.w3.org/2000/svg" xmlns:xlink="http://www.w3.org/1999/xlink" version="1.1" x="0px" y="0px" viewBox="0 0 100 125" enable-background="new 0 0 100 100" xml:space="preserve"><g><g><path d="M190.148,0.668h-1.551h-5.88h-45.741c-3.247,0-5.887,2.642-5.887,5.888v86.888c0,3.247,2.64,5.889,5.887,5.889h66.046    c3.246,0,5.888-2.642,5.888-5.889V26.861V20.98v-1.373L190.148,0.668z M204.039,93.443c0,0.561-0.457,1.018-1.017,1.018h-66.046    c-0.561,0-1.016-0.457-1.016-1.018V6.556c0-0.561,0.455-1.017,1.016-1.017h47.426V20.98c0,2.313,1.882,4.196,4.195,4.196h15.441    V93.443z M189.273,20.305V7.224l13.081,13.081H189.273z"/></g></g><g><g><g><path d="M70.148,0.668h-1.551h-5.88H16.977c-3.246,0-5.887,2.642-5.887,5.888v86.888c0,3.247,2.641,5.889,5.887,5.889h66.046     c3.247,0,5.888-2.642,5.888-5.889V26.861V20.98v-1.373L70.148,0.668z M84.039,93.443c0,0.561-0.457,1.018-1.017,1.018H16.977     c-0.56,0-1.016-0.457-1.016-1.018V6.556c0-0.561,0.456-1.017,1.016-1.017h47.426V20.98c0,2.313,1.883,4.196,4.195,4.196h15.441     V93.443z M69.273,20.305V7.224l13.082,13.081H69.273z"/></g></g><g><path d="M65.168,29.133l-2.104,9.883c-2.022-2.021-4.972-3.032-8.849-3.032s-7.017,1.392-9.419,4.174    c-1.355,1.57-2.318,3.532-2.89,5.887h19.623l-1.143,5.53H41.192c-0.023,0.548-0.035,1.249-0.035,2.105    c0,0.832,0.023,1.7,0.071,2.604h18.16l-1.142,5.53h-16.27c0.594,2.545,1.511,4.543,2.747,5.993c2.379,2.807,5.471,4.21,9.276,4.21    c4.566,0,8.206-1.403,10.917-4.21v10.918c-3.092,1.546-6.695,2.319-10.81,2.319c-6.945,0-12.654-2.379-17.126-7.136    c-3.045-3.235-5.054-7.267-6.029-12.095h-5.28l1.142-5.53h3.496c-0.023-0.571-0.035-1.178-0.035-1.819    c0-1.095,0.023-2.058,0.071-2.891h-4.674l1.142-5.53h4.246c0.999-4.732,2.984-8.692,5.958-11.881    c4.495-4.804,10.406-7.206,17.731-7.206C58.746,26.957,62.219,27.683,65.168,29.133z"/></g></g><g><path d="M167.503,66.857V51.908c-4.662-1.331-8.081-3.348-10.258-6.047c-2.177-2.7-3.265-5.976-3.265-9.829   c0-3.901,1.231-7.177,3.692-9.83c2.462-2.652,5.738-4.18,9.83-4.584v-3.532h5.173v3.532c3.782,0.452,6.791,1.743,9.026,3.871   c2.236,2.129,3.663,4.977,4.281,8.545l-9.026,1.177c-0.547-2.806-1.974-4.709-4.281-5.708v13.95   c5.709,1.546,9.598,3.55,11.667,6.012s3.104,5.619,3.104,9.473c0,4.305-1.302,7.932-3.906,10.882   c-2.604,2.949-6.226,4.757-10.864,5.423v6.672h-5.173V75.42c-4.115-0.499-7.457-2.033-10.025-4.602   c-2.569-2.569-4.21-6.196-4.924-10.882l9.312-0.999c0.381,1.902,1.095,3.544,2.141,4.923   C165.053,65.24,166.218,66.239,167.503,66.857z M167.503,29.396c-1.403,0.476-2.521,1.284-3.354,2.426   c-0.832,1.142-1.248,2.403-1.248,3.782c0,1.261,0.38,2.432,1.142,3.514c0.761,1.083,1.914,1.957,3.461,2.623V29.396z    M172.676,67.357c1.784-0.333,3.234-1.16,4.353-2.479c1.118-1.32,1.677-2.872,1.677-4.656c0-1.594-0.47-2.967-1.409-4.121   c-0.939-1.153-2.479-2.039-4.62-2.658V67.357z"/></g><text x="0" y="115" fill="#000000" font-size="5px" font-weight="bold" font-family="'Helvetica Neue', Helvetica, Arial-Unicode, Arial, Sans-serif">Created by Rafa</text><text x="0" y="120" fill="#000000" font-size="5px" font-weight="bold" font-family="'Helvetica Neue', Helvetica, Arial-Unicode, Arial, Sans-serif">from the Noun Project</text></svg>