<svg xmlns="http://www.w3.org/2000/svg" xmlns:xlink="http://www.w3.org/1999/xlink" version="1.1" x="0px" y="0px" viewBox="0 0 50 62.5" enable-background="new 0 0 50 50" xml:space="preserve"><g><path fill="#000000" d="M23.831,22.281h5.885v-8.943h-5.885v-0.732c0-1.681,0.335-2.093,0.373-2.133   c0.212-0.229,0.738-0.36,1.446-0.36c1.042,0,2.153,0.137,3.296,0.408l1.395,0.333l1.573-8.107l-1.175-0.365   c-4.587-1.43-9.852-1.492-13.078,0.258c-1.701,0.92-2.895,2.16-3.55,3.679c-0.614,1.42-0.913,3.429-0.913,6.151v0.869H8.824v8.943   h4.374v13.504H1.552V45.87h46.716V35.785H23.822V22.281H23.831z M11.577,19.533v-3.446h4.374V12.47   c0-2.306,0.231-4.009,0.687-5.062c0.411-0.95,1.177-1.72,2.339-2.352c2.276-1.231,6.239-1.26,9.768-0.38l-0.562,2.898   c-2.486-0.395-4.821-0.225-5.99,1.031c-0.755,0.815-1.109,2.087-1.109,4.009v3.476h5.884v3.445h-5.884v23.578h-5.132V19.535h-4.374   V19.533z M4.306,38.534h8.898v4.588H4.306V38.534z M45.525,38.534v4.588H23.828v-4.588H45.525z"/></g><text x="0" y="65" fill="#000000" font-size="5px" font-weight="bold" font-family="'Helvetica Neue', Helvetica, Arial-Unicode, Arial, Sans-serif">Created by Luboš Volkov</text><text x="0" y="70" fill="#000000" font-size="5px" font-weight="bold" font-family="'Helvetica Neue', Helvetica, Arial-Unicode, Arial, Sans-serif">from the Noun Project</text></svg>