<svg xmlns="http://www.w3.org/2000/svg" data-name="Layer 1" viewBox="0 0 100 125" x="0px" y="0px"><title>Essential Icons</title><path d="M50,6.07h0a32,32,0,0,0-32,32,33.3,33.3,0,0,0,5.11,17.35C29.52,66,46.79,91.53,47.52,92.61a3,3,0,0,0,5,0c.73-1.08,18-26.58,24.41-37.19A33.3,33.3,0,0,0,82,38.08,32,32,0,0,0,50,6.07ZM71.76,52.32C66.86,60.43,55.14,77.93,50,85.56c-5.14-7.63-16.86-25.14-21.76-33.24A27.4,27.4,0,0,1,24,38.08a26,26,0,1,1,52,0A27.4,27.4,0,0,1,71.76,52.32Z"/><path d="M50,22A16,16,0,1,0,66,38,16,16,0,0,0,50,22Zm0,26A10,10,0,1,1,60,38,10,10,0,0,1,50,48Z"/><text x="0" y="115" fill="#000000" font-size="5px" font-weight="bold" font-family="'Helvetica Neue', Helvetica, Arial-Unicode, Arial, Sans-serif">Created by Blair Adams</text><text x="0" y="120" fill="#000000" font-size="5px" font-weight="bold" font-family="'Helvetica Neue', Helvetica, Arial-Unicode, Arial, Sans-serif">from the Noun Project</text></svg>