<svg xmlns="http://www.w3.org/2000/svg" viewBox="0 0 68 85" x="0px" y="0px"><path fill="#000000" fill-rule="evenodd" d="M81.9829549,429.561954 L81.9829549,429.561954 C81.9704744,429.473081 81.9578973,429.378625 81.945409,429.278879 C81.7494526,427.713731 81.7265421,426.065014 81.9959372,424.47345 C82.2278676,423.103225 82.6667,421.871953 83.3657877,420.825197 C83.9238301,419.98963 84.5726954,419.246199 85.2931184,418.58994 C86.1641885,417.796451 87.094209,417.168577 88.0281173,416.6849 C88.6049819,416.386138 89.0742754,416.195787 89.3850029,416.095922 C89.5827683,416.032362 89.7892287,416 89.996957,416 C108.774638,416 123.996957,431.222319 123.996957,450 C123.996957,450.176736 123.973531,450.352692 123.92729,450.523271 C123.678866,451.439703 123.141417,452.70137 122.201609,453.978644 C121.347461,455.139499 120.292225,456.088434 119.0099,456.729597 C118.012399,457.228347 116.845743,457.555751 115.537999,457.752003 C113.921153,457.99464 112.242335,458.021239 110.6946,457.923981 C110.67342,457.92265 110.652609,457.921316 110.632173,457.919981 L94,466.236068 L94,476.501788 C94,479.539973 91.5378144,482 88.5,482 C85.4664682,482 83,479.541574 83,476.508704 L83,471.736068 L58.8944272,483.788854 C57.1753161,484.64841 55.3515901,482.824684 56.2111456,481.105573 L81.9829549,429.561954 Z M86.9380315,467.998922 C86.9783688,468.157557 87,468.325186 87,468.5 L87,476.508704 C87,477.329505 87.6726882,478 88.5,478 C89.3294604,478 90,477.330048 90,476.501788 L90,465 C90,464.242456 90.4280048,463.54993 91.1055728,463.211146 L96.2155145,460.656175 C94.8636027,459.556017 94,457.878861 94,456 C94,452.686292 96.6862915,450 100,450 C103.235405,450 105.872695,452.560837 105.995527,455.766168 L108.455621,454.536122 C108.815845,453.065041 109,451.545594 109,450 C109,439.50659 100.49341,431 90,431 C88.4544062,431 86.9349587,431.184155 85.4638784,431.544379 L83.7231931,435.02575 C88.9084548,435.396316 93,439.720342 93,445 C93,450.522847 88.5228475,455 83,455 C80.0246016,455 77.3049633,453.689144 75.4540713,451.563993 L62.472136,477.527864 L72.9825133,472.272675 C71.7361758,470.849827 71,468.993717 71,467 C71,462.581722 74.581722,459 79,459 C83.418278,459 87,462.581722 87,467 C87,467.335813 86.9791966,467.669281 86.9380315,467.998922 L86.9380315,467.998922 Z M100,458 C101.104569,458 102,457.104569 102,456 C102,454.895431 101.104569,454 100,454 C98.8954305,454 98,454.895431 98,456 C98,457.104569 98.8954305,458 100,458 Z M77.5160001,447.440136 C78.4629491,449.568819 80.5923716,451 83,451 C86.3137085,451 89,448.313708 89,445 C89,441.686292 86.3137085,439 83,439 C82.5438585,439 82.0958558,439.05056 81.6613563,439.149423 L77.5160001,447.440136 Z M82.9912181,467.268323 C82.9970604,467.179445 83,467.089977 83,467 C83,464.790861 81.209139,463 79,463 C76.790861,463 75,464.790861 75,467 C75,468.381293 75.7064777,469.630491 76.8187942,470.354535 L82.9912181,467.268323 Z M89.8676716,420.236807 C89.227986,420.568104 88.5844127,421.002592 87.9867952,421.546983 C87.499644,421.990746 87.0642686,422.489574 86.6921543,423.046747 C86.3371792,423.578258 86.0842242,424.287996 85.9398389,425.141013 C85.818478,425.858003 85.7796644,426.625441 85.8043247,427.394919 C87.1999492,427.13312 88.625883,427 90.0687343,427 C102.771284,427 113.068734,437.297451 113.068734,450 C113.068734,451.342329 112.953518,452.670064 112.726629,453.97244 C113.475148,453.958605 114.228361,453.903748 114.944373,453.796297 C115.868651,453.657592 116.645864,453.439479 117.221045,453.151888 C117.892484,452.816168 118.478766,452.288948 118.979771,451.608041 C119.330734,451.131055 119.617394,450.609766 119.839186,450.089107 C119.905571,449.933266 119.957413,449.799465 119.995429,449.693997 C119.83247,433.386766 106.65857,420.194583 90.3584159,420.002133 C90.2290826,420.058031 90.0628063,420.135745 89.8676716,420.236807 Z" transform="translate(-56 -416)"/><text x="0" y="83" fill="#000000" font-size="5px" font-weight="bold" font-family="'Helvetica Neue', Helvetica, Arial-Unicode, Arial, Sans-serif">Created by Andrejs Kirma</text><text x="0" y="88" fill="#000000" font-size="5px" font-weight="bold" font-family="'Helvetica Neue', Helvetica, Arial-Unicode, Arial, Sans-serif">from the Noun Project</text></svg>